<svg xmlns="http://www.w3.org/2000/svg" version="1.1" xmlns:xlink="http://www.w3.org/1999/xlink" xmlns:svgjs="http://svgjs.dev/svgjs" width="1920" height="1080" preserveAspectRatio="none" viewBox="0 0 1920 1080"><g mask="url(&quot;#SvgjsMask1160&quot;)" fill="none"><path d="M22.09 -62.24L78.38 -29.74L78.38 35.26L22.09 67.76L-34.2 35.26L-34.2 -29.74zM78.38 35.26L134.68 67.76L134.68 132.76L78.38 165.26L22.09 132.76L22.09 67.76zM22.09 522.76L78.38 555.26L78.38 620.26L22.09 652.76L-34.2 620.26L-34.2 555.26zM22.09 912.76L78.38 945.26L78.38 1010.26L22.09 1042.76L-34.2 1010.26L-34.2 945.26zM190.97 230.26L247.26 262.76L247.26 327.76L190.97 360.26L134.68 327.76L134.68 262.76zM134.68 717.76L190.97 750.26L190.97 815.26L134.68 847.76L78.38 815.26L78.38 750.26zM190.97 1010.26L247.26 1042.76L247.26 1107.76L190.97 1140.26L134.68 1107.76L134.68 1042.76zM247.26 -62.24L303.56 -29.74L303.56 35.26L247.26 67.76L190.97 35.26L190.97 -29.74zM247.26 132.76L303.56 165.26L303.56 230.26L247.26 262.76L190.97 230.26L190.97 165.26zM247.26 327.76L303.56 360.26L303.56 425.26L247.26 457.76L190.97 425.26L190.97 360.26zM247.26 522.76L303.56 555.26L303.56 620.26L247.26 652.76L190.97 620.26L190.97 555.26zM303.56 620.26L359.85 652.76L359.85 717.76L303.56 750.26L247.26 717.76L247.26 652.76zM303.56 815.26L359.85 847.76L359.85 912.76L303.56 945.26L247.26 912.76L247.26 847.76zM247.26 912.76L303.56 945.26L303.56 1010.26L247.26 1042.76L190.97 1010.26L190.97 945.26zM303.56 1010.26L359.85 1042.76L359.85 1107.76L303.56 1140.26L247.26 1107.76L247.26 1042.76zM416.14 230.26L472.44 262.76L472.44 327.76L416.14 360.26L359.85 327.76L359.85 262.76zM359.85 327.76L416.14 360.26L416.14 425.26L359.85 457.76L303.56 425.26L303.56 360.26zM416.14 425.26L472.44 457.76L472.44 522.76L416.14 555.26L359.85 522.76L359.85 457.76zM359.85 522.76L416.14 555.26L416.14 620.26L359.85 652.76L303.56 620.26L303.56 555.26zM359.85 912.76L416.14 945.26L416.14 1010.26L359.85 1042.76L303.56 1010.26L303.56 945.26zM528.73 230.26L585.02 262.76L585.02 327.76L528.73 360.26L472.44 327.76L472.44 262.76zM472.44 522.76L528.73 555.26L528.73 620.26L472.44 652.76L416.14 620.26L416.14 555.26zM472.44 912.76L528.73 945.26L528.73 1010.26L472.44 1042.76L416.14 1010.26L416.14 945.26zM528.73 1010.26L585.02 1042.76L585.02 1107.76L528.73 1140.26L472.44 1107.76L472.44 1042.76zM585.02 -62.24L641.32 -29.74L641.32 35.26L585.02 67.76L528.73 35.26L528.73 -29.74zM641.32 230.26L697.61 262.76L697.61 327.76L641.32 360.26L585.02 327.76L585.02 262.76zM641.32 620.26L697.61 652.76L697.61 717.76L641.32 750.26L585.02 717.76L585.02 652.76zM585.02 717.76L641.32 750.26L641.32 815.26L585.02 847.76L528.73 815.26L528.73 750.26zM641.32 1010.26L697.61 1042.76L697.61 1107.76L641.32 1140.26L585.02 1107.76L585.02 1042.76zM697.61 -62.24L753.9 -29.74L753.9 35.26L697.61 67.76L641.32 35.26L641.32 -29.74zM753.9 230.26L810.2 262.76L810.2 327.76L753.9 360.26L697.61 327.76L697.61 262.76zM753.9 425.26L810.2 457.76L810.2 522.76L753.9 555.26L697.61 522.76L697.61 457.76zM697.61 522.76L753.9 555.26L753.9 620.26L697.61 652.76L641.32 620.26L641.32 555.26zM753.9 620.26L810.2 652.76L810.2 717.76L753.9 750.26L697.61 717.76L697.61 652.76zM753.9 1010.26L810.2 1042.76L810.2 1107.76L753.9 1140.26L697.61 1107.76L697.61 1042.76zM810.2 -62.24L866.49 -29.74L866.49 35.26L810.2 67.76L753.9 35.26L753.9 -29.74zM810.2 132.76L866.49 165.26L866.49 230.26L810.2 262.76L753.9 230.26L753.9 165.26zM866.49 230.26L922.78 262.76L922.78 327.76L866.49 360.26L810.2 327.76L810.2 262.76zM866.49 620.26L922.78 652.76L922.78 717.76L866.49 750.26L810.2 717.76L810.2 652.76zM810.2 717.76L866.49 750.26L866.49 815.26L810.2 847.76L753.9 815.26L753.9 750.26zM866.49 1010.26L922.78 1042.76L922.78 1107.76L866.49 1140.26L810.2 1107.76L810.2 1042.76zM979.08 230.26L1035.37 262.76L1035.37 327.76L979.08 360.26L922.78 327.76L922.78 262.76zM922.78 327.76L979.08 360.26L979.08 425.26L922.78 457.76L866.49 425.26L866.49 360.26zM922.78 717.76L979.08 750.26L979.08 815.26L922.78 847.76L866.49 815.26L866.49 750.26zM922.78 912.76L979.08 945.26L979.08 1010.26L922.78 1042.76L866.49 1010.26L866.49 945.26zM979.08 1010.26L1035.37 1042.76L1035.37 1107.76L979.08 1140.26L922.78 1107.76L922.78 1042.76zM1035.37 -62.24L1091.66 -29.74L1091.66 35.26L1035.37 67.76L979.08 35.26L979.08 -29.74zM1091.66 35.26L1147.95 67.76L1147.95 132.76L1091.66 165.26L1035.37 132.76L1035.37 67.76zM1091.66 230.26L1147.95 262.76L1147.95 327.76L1091.66 360.26L1035.37 327.76L1035.37 262.76zM1091.66 425.26L1147.95 457.76L1147.95 522.76L1091.66 555.26L1035.37 522.76L1035.37 457.76zM1035.37 522.76L1091.66 555.26L1091.66 620.26L1035.37 652.76L979.08 620.26L979.08 555.26zM1035.37 717.76L1091.66 750.26L1091.66 815.26L1035.37 847.76L979.08 815.26L979.08 750.26zM1091.66 815.26L1147.95 847.76L1147.95 912.76L1091.66 945.26L1035.37 912.76L1035.37 847.76zM1147.95 132.76L1204.25 165.26L1204.25 230.26L1147.95 262.76L1091.66 230.26L1091.66 165.26zM1147.95 327.76L1204.25 360.26L1204.25 425.26L1147.95 457.76L1091.66 425.26L1091.66 360.26zM1204.25 425.26L1260.54 457.76L1260.54 522.76L1204.25 555.26L1147.95 522.76L1147.95 457.76zM1147.95 522.76L1204.25 555.26L1204.25 620.26L1147.95 652.76L1091.66 620.26L1091.66 555.26zM1204.25 620.26L1260.54 652.76L1260.54 717.76L1204.25 750.26L1147.95 717.76L1147.95 652.76zM1147.95 912.76L1204.25 945.26L1204.25 1010.26L1147.95 1042.76L1091.66 1010.26L1091.66 945.26zM1204.25 1010.26L1260.54 1042.76L1260.54 1107.76L1204.25 1140.26L1147.95 1107.76L1147.95 1042.76zM1316.83 35.26L1373.13 67.76L1373.13 132.76L1316.83 165.26L1260.54 132.76L1260.54 67.76zM1260.54 327.76L1316.83 360.26L1316.83 425.26L1260.54 457.76L1204.25 425.26L1204.25 360.26zM1316.83 425.26L1373.13 457.76L1373.13 522.76L1316.83 555.26L1260.54 522.76L1260.54 457.76zM1316.83 1010.26L1373.13 1042.76L1373.13 1107.76L1316.83 1140.26L1260.54 1107.76L1260.54 1042.76zM1373.13 -62.24L1429.42 -29.74L1429.42 35.26L1373.13 67.76L1316.83 35.26L1316.83 -29.74zM1373.13 132.76L1429.42 165.26L1429.42 230.26L1373.13 262.76L1316.83 230.26L1316.83 165.26zM1373.13 327.76L1429.42 360.26L1429.42 425.26L1373.13 457.76L1316.83 425.26L1316.83 360.26zM1429.42 425.26L1485.71 457.76L1485.71 522.76L1429.42 555.26L1373.13 522.76L1373.13 457.76zM1373.13 717.76L1429.42 750.26L1429.42 815.26L1373.13 847.76L1316.83 815.26L1316.83 750.26zM1542.01 35.26L1598.3 67.76L1598.3 132.76L1542.01 165.26L1485.71 132.76L1485.71 67.76zM1542.01 620.26L1598.3 652.76L1598.3 717.76L1542.01 750.26L1485.71 717.76L1485.71 652.76zM1542.01 1010.26L1598.3 1042.76L1598.3 1107.76L1542.01 1140.26L1485.71 1107.76L1485.71 1042.76zM1654.59 230.26L1710.89 262.76L1710.89 327.76L1654.59 360.26L1598.3 327.76L1598.3 262.76zM1598.3 327.76L1654.59 360.26L1654.59 425.26L1598.3 457.76L1542.01 425.26L1542.01 360.26zM1654.59 425.26L1710.89 457.76L1710.89 522.76L1654.59 555.26L1598.3 522.76L1598.3 457.76zM1598.3 717.76L1654.59 750.26L1654.59 815.26L1598.3 847.76L1542.01 815.26L1542.01 750.26zM1654.59 815.26L1710.89 847.76L1710.89 912.76L1654.59 945.26L1598.3 912.76L1598.3 847.76zM1710.89 -62.24L1767.18 -29.74L1767.18 35.26L1710.89 67.76L1654.59 35.26L1654.59 -29.74zM1767.18 35.26L1823.47 67.76L1823.47 132.76L1767.18 165.26L1710.89 132.76L1710.89 67.76zM1710.89 522.76L1767.18 555.26L1767.18 620.26L1710.89 652.76L1654.59 620.26L1654.59 555.26zM1710.89 717.76L1767.18 750.26L1767.18 815.26L1710.89 847.76L1654.59 815.26L1654.59 750.26zM1767.18 815.26L1823.47 847.76L1823.47 912.76L1767.18 945.26L1710.89 912.76L1710.89 847.76zM1767.18 1010.26L1823.47 1042.76L1823.47 1107.76L1767.18 1140.26L1710.89 1107.76L1710.89 1042.76zM1823.47 -62.24L1879.77 -29.74L1879.77 35.26L1823.47 67.76L1767.18 35.26L1767.18 -29.74zM1879.77 35.26L1936.06 67.76L1936.06 132.76L1879.77 165.26L1823.47 132.76L1823.47 67.76zM1879.77 815.26L1936.06 847.76L1936.06 912.76L1879.77 945.26L1823.47 912.76L1823.47 847.76zM1823.47 912.76L1879.77 945.26L1879.77 1010.26L1823.47 1042.76L1767.18 1010.26L1767.18 945.26zM1936.06 -62.24L1992.35 -29.74L1992.35 35.26L1936.06 67.76L1879.77 35.26L1879.77 -29.74zM1992.35 35.26L2048.65 67.76L2048.65 132.76L1992.35 165.26L1936.06 132.76L1936.06 67.76zM1992.35 425.26L2048.65 457.76L2048.65 522.76L1992.35 555.26L1936.06 522.76L1936.06 457.76zM1936.06 522.76L1992.35 555.26L1992.35 620.26L1936.06 652.76L1879.77 620.26L1879.77 555.26zM1992.35 815.26L2048.65 847.76L2048.65 912.76L1992.35 945.26L1936.06 912.76L1936.06 847.76z" stroke="rgba(0, 0, 0, 0)" stroke-width="2"></path><path d="M15.59 -62.24 a6.5 6.5 0 1 0 13 0 a6.5 6.5 0 1 0 -13 0zM71.88 -29.74 a6.5 6.5 0 1 0 13 0 a6.5 6.5 0 1 0 -13 0zM71.88 35.26 a6.5 6.5 0 1 0 13 0 a6.5 6.5 0 1 0 -13 0zM15.59 67.76 a6.5 6.5 0 1 0 13 0 a6.5 6.5 0 1 0 -13 0zM-40.7 35.26 a6.5 6.5 0 1 0 13 0 a6.5 6.5 0 1 0 -13 0zM-40.7 -29.74 a6.5 6.5 0 1 0 13 0 a6.5 6.5 0 1 0 -13 0zM128.18 67.76 a6.5 6.5 0 1 0 13 0 a6.5 6.5 0 1 0 -13 0zM128.18 132.76 a6.5 6.5 0 1 0 13 0 a6.5 6.5 0 1 0 -13 0zM71.88 165.26 a6.5 6.5 0 1 0 13 0 a6.5 6.5 0 1 0 -13 0zM15.59 132.76 a6.5 6.5 0 1 0 13 0 a6.5 6.5 0 1 0 -13 0zM15.59 522.76 a6.5 6.5 0 1 0 13 0 a6.5 6.5 0 1 0 -13 0zM71.88 555.26 a6.5 6.5 0 1 0 13 0 a6.5 6.5 0 1 0 -13 0zM71.88 620.26 a6.5 6.5 0 1 0 13 0 a6.5 6.5 0 1 0 -13 0zM15.59 652.76 a6.5 6.5 0 1 0 13 0 a6.5 6.5 0 1 0 -13 0zM-40.7 620.26 a6.5 6.5 0 1 0 13 0 a6.5 6.5 0 1 0 -13 0zM-40.7 555.26 a6.5 6.5 0 1 0 13 0 a6.5 6.5 0 1 0 -13 0zM15.59 912.76 a6.5 6.5 0 1 0 13 0 a6.5 6.5 0 1 0 -13 0zM71.88 945.26 a6.5 6.5 0 1 0 13 0 a6.5 6.5 0 1 0 -13 0zM71.88 1010.26 a6.5 6.5 0 1 0 13 0 a6.5 6.5 0 1 0 -13 0zM15.59 1042.76 a6.5 6.5 0 1 0 13 0 a6.5 6.5 0 1 0 -13 0zM-40.7 1010.26 a6.5 6.5 0 1 0 13 0 a6.5 6.5 0 1 0 -13 0zM-40.7 945.26 a6.5 6.5 0 1 0 13 0 a6.5 6.5 0 1 0 -13 0zM184.47 230.26 a6.5 6.5 0 1 0 13 0 a6.5 6.5 0 1 0 -13 0zM240.76 262.76 a6.5 6.5 0 1 0 13 0 a6.5 6.5 0 1 0 -13 0zM240.76 327.76 a6.5 6.5 0 1 0 13 0 a6.5 6.5 0 1 0 -13 0zM184.47 360.26 a6.5 6.5 0 1 0 13 0 a6.5 6.5 0 1 0 -13 0zM128.18 327.76 a6.5 6.5 0 1 0 13 0 a6.5 6.5 0 1 0 -13 0zM128.18 262.76 a6.5 6.5 0 1 0 13 0 a6.5 6.5 0 1 0 -13 0zM128.18 717.76 a6.5 6.5 0 1 0 13 0 a6.5 6.5 0 1 0 -13 0zM184.47 750.26 a6.5 6.5 0 1 0 13 0 a6.5 6.5 0 1 0 -13 0zM184.47 815.26 a6.5 6.5 0 1 0 13 0 a6.5 6.5 0 1 0 -13 0zM128.18 847.76 a6.5 6.5 0 1 0 13 0 a6.5 6.5 0 1 0 -13 0zM71.88 815.26 a6.5 6.5 0 1 0 13 0 a6.5 6.5 0 1 0 -13 0zM71.88 750.26 a6.5 6.5 0 1 0 13 0 a6.5 6.5 0 1 0 -13 0zM184.47 1010.26 a6.5 6.5 0 1 0 13 0 a6.5 6.5 0 1 0 -13 0zM240.76 1042.76 a6.5 6.5 0 1 0 13 0 a6.5 6.5 0 1 0 -13 0zM240.76 1107.76 a6.5 6.5 0 1 0 13 0 a6.5 6.5 0 1 0 -13 0zM184.47 1140.26 a6.5 6.5 0 1 0 13 0 a6.5 6.5 0 1 0 -13 0zM128.18 1107.76 a6.5 6.5 0 1 0 13 0 a6.5 6.5 0 1 0 -13 0zM128.18 1042.76 a6.5 6.5 0 1 0 13 0 a6.5 6.5 0 1 0 -13 0zM240.76 -62.24 a6.5 6.5 0 1 0 13 0 a6.5 6.5 0 1 0 -13 0zM297.06 -29.74 a6.5 6.5 0 1 0 13 0 a6.5 6.5 0 1 0 -13 0zM297.06 35.26 a6.5 6.5 0 1 0 13 0 a6.5 6.5 0 1 0 -13 0zM240.76 67.76 a6.5 6.5 0 1 0 13 0 a6.5 6.5 0 1 0 -13 0zM184.47 35.26 a6.5 6.5 0 1 0 13 0 a6.5 6.5 0 1 0 -13 0zM184.47 -29.74 a6.5 6.5 0 1 0 13 0 a6.5 6.5 0 1 0 -13 0zM240.76 132.76 a6.5 6.5 0 1 0 13 0 a6.5 6.5 0 1 0 -13 0zM297.06 165.26 a6.5 6.5 0 1 0 13 0 a6.5 6.5 0 1 0 -13 0zM297.06 230.26 a6.5 6.5 0 1 0 13 0 a6.5 6.5 0 1 0 -13 0zM184.47 165.26 a6.5 6.5 0 1 0 13 0 a6.5 6.5 0 1 0 -13 0zM297.06 360.26 a6.5 6.5 0 1 0 13 0 a6.5 6.5 0 1 0 -13 0zM297.06 425.26 a6.5 6.5 0 1 0 13 0 a6.5 6.5 0 1 0 -13 0zM240.76 457.76 a6.5 6.5 0 1 0 13 0 a6.5 6.5 0 1 0 -13 0zM184.47 425.26 a6.5 6.5 0 1 0 13 0 a6.5 6.5 0 1 0 -13 0zM240.76 522.76 a6.5 6.5 0 1 0 13 0 a6.5 6.5 0 1 0 -13 0zM297.06 555.26 a6.5 6.5 0 1 0 13 0 a6.5 6.5 0 1 0 -13 0zM297.06 620.26 a6.5 6.5 0 1 0 13 0 a6.5 6.5 0 1 0 -13 0zM240.76 652.76 a6.5 6.5 0 1 0 13 0 a6.5 6.5 0 1 0 -13 0zM184.47 620.26 a6.5 6.5 0 1 0 13 0 a6.5 6.5 0 1 0 -13 0zM184.47 555.26 a6.5 6.5 0 1 0 13 0 a6.5 6.5 0 1 0 -13 0zM353.35 652.76 a6.5 6.5 0 1 0 13 0 a6.5 6.5 0 1 0 -13 0zM353.35 717.76 a6.5 6.5 0 1 0 13 0 a6.5 6.5 0 1 0 -13 0zM297.06 750.26 a6.5 6.5 0 1 0 13 0 a6.5 6.5 0 1 0 -13 0zM240.76 717.76 a6.5 6.5 0 1 0 13 0 a6.5 6.5 0 1 0 -13 0zM297.06 815.26 a6.5 6.5 0 1 0 13 0 a6.5 6.5 0 1 0 -13 0zM353.35 847.76 a6.5 6.5 0 1 0 13 0 a6.5 6.5 0 1 0 -13 0zM353.35 912.76 a6.5 6.5 0 1 0 13 0 a6.5 6.5 0 1 0 -13 0zM297.06 945.26 a6.5 6.5 0 1 0 13 0 a6.5 6.5 0 1 0 -13 0zM240.76 912.76 a6.5 6.5 0 1 0 13 0 a6.5 6.5 0 1 0 -13 0zM240.76 847.76 a6.5 6.5 0 1 0 13 0 a6.5 6.5 0 1 0 -13 0zM297.06 1010.26 a6.5 6.5 0 1 0 13 0 a6.5 6.5 0 1 0 -13 0zM184.47 945.26 a6.5 6.5 0 1 0 13 0 a6.5 6.5 0 1 0 -13 0zM353.35 1042.76 a6.5 6.5 0 1 0 13 0 a6.5 6.5 0 1 0 -13 0zM353.35 1107.76 a6.5 6.5 0 1 0 13 0 a6.5 6.5 0 1 0 -13 0zM297.06 1140.26 a6.5 6.5 0 1 0 13 0 a6.5 6.5 0 1 0 -13 0zM409.64 230.26 a6.5 6.5 0 1 0 13 0 a6.5 6.5 0 1 0 -13 0zM465.94 262.76 a6.5 6.5 0 1 0 13 0 a6.5 6.5 0 1 0 -13 0zM465.94 327.76 a6.5 6.5 0 1 0 13 0 a6.5 6.5 0 1 0 -13 0zM409.64 360.26 a6.5 6.5 0 1 0 13 0 a6.5 6.5 0 1 0 -13 0zM353.35 327.76 a6.5 6.5 0 1 0 13 0 a6.5 6.5 0 1 0 -13 0zM353.35 262.76 a6.5 6.5 0 1 0 13 0 a6.5 6.5 0 1 0 -13 0zM409.64 425.26 a6.5 6.5 0 1 0 13 0 a6.5 6.5 0 1 0 -13 0zM353.35 457.76 a6.5 6.5 0 1 0 13 0 a6.5 6.5 0 1 0 -13 0zM465.94 457.76 a6.5 6.5 0 1 0 13 0 a6.5 6.5 0 1 0 -13 0zM465.94 522.76 a6.5 6.5 0 1 0 13 0 a6.5 6.5 0 1 0 -13 0zM409.64 555.26 a6.5 6.5 0 1 0 13 0 a6.5 6.5 0 1 0 -13 0zM353.35 522.76 a6.5 6.5 0 1 0 13 0 a6.5 6.5 0 1 0 -13 0zM409.64 620.26 a6.5 6.5 0 1 0 13 0 a6.5 6.5 0 1 0 -13 0zM409.64 945.26 a6.5 6.5 0 1 0 13 0 a6.5 6.5 0 1 0 -13 0zM409.64 1010.26 a6.5 6.5 0 1 0 13 0 a6.5 6.5 0 1 0 -13 0zM522.23 230.26 a6.5 6.5 0 1 0 13 0 a6.5 6.5 0 1 0 -13 0zM578.52 262.76 a6.5 6.5 0 1 0 13 0 a6.5 6.5 0 1 0 -13 0zM578.52 327.76 a6.5 6.5 0 1 0 13 0 a6.5 6.5 0 1 0 -13 0zM522.23 360.26 a6.5 6.5 0 1 0 13 0 a6.5 6.5 0 1 0 -13 0zM522.23 555.26 a6.5 6.5 0 1 0 13 0 a6.5 6.5 0 1 0 -13 0zM522.23 620.26 a6.5 6.5 0 1 0 13 0 a6.5 6.5 0 1 0 -13 0zM465.94 652.76 a6.5 6.5 0 1 0 13 0 a6.5 6.5 0 1 0 -13 0zM465.94 912.76 a6.5 6.5 0 1 0 13 0 a6.5 6.5 0 1 0 -13 0zM522.23 945.26 a6.5 6.5 0 1 0 13 0 a6.5 6.5 0 1 0 -13 0zM522.23 1010.26 a6.5 6.5 0 1 0 13 0 a6.5 6.5 0 1 0 -13 0zM465.94 1042.76 a6.5 6.5 0 1 0 13 0 a6.5 6.5 0 1 0 -13 0zM578.52 1042.76 a6.5 6.5 0 1 0 13 0 a6.5 6.5 0 1 0 -13 0zM578.52 1107.76 a6.5 6.5 0 1 0 13 0 a6.5 6.5 0 1 0 -13 0zM522.23 1140.26 a6.5 6.5 0 1 0 13 0 a6.5 6.5 0 1 0 -13 0zM465.94 1107.76 a6.5 6.5 0 1 0 13 0 a6.5 6.5 0 1 0 -13 0zM578.52 -62.24 a6.5 6.5 0 1 0 13 0 a6.5 6.5 0 1 0 -13 0zM634.82 -29.74 a6.5 6.5 0 1 0 13 0 a6.5 6.5 0 1 0 -13 0zM634.82 35.26 a6.5 6.5 0 1 0 13 0 a6.5 6.5 0 1 0 -13 0zM578.52 67.76 a6.5 6.5 0 1 0 13 0 a6.5 6.5 0 1 0 -13 0zM522.23 35.26 a6.5 6.5 0 1 0 13 0 a6.5 6.5 0 1 0 -13 0zM522.23 -29.74 a6.5 6.5 0 1 0 13 0 a6.5 6.5 0 1 0 -13 0zM634.82 230.26 a6.5 6.5 0 1 0 13 0 a6.5 6.5 0 1 0 -13 0zM691.11 262.76 a6.5 6.5 0 1 0 13 0 a6.5 6.5 0 1 0 -13 0zM691.11 327.76 a6.5 6.5 0 1 0 13 0 a6.5 6.5 0 1 0 -13 0zM634.82 360.26 a6.5 6.5 0 1 0 13 0 a6.5 6.5 0 1 0 -13 0zM634.82 620.26 a6.5 6.5 0 1 0 13 0 a6.5 6.5 0 1 0 -13 0zM691.11 652.76 a6.5 6.5 0 1 0 13 0 a6.5 6.5 0 1 0 -13 0zM691.11 717.76 a6.5 6.5 0 1 0 13 0 a6.5 6.5 0 1 0 -13 0zM634.82 750.26 a6.5 6.5 0 1 0 13 0 a6.5 6.5 0 1 0 -13 0zM578.52 717.76 a6.5 6.5 0 1 0 13 0 a6.5 6.5 0 1 0 -13 0zM578.52 652.76 a6.5 6.5 0 1 0 13 0 a6.5 6.5 0 1 0 -13 0zM634.82 815.26 a6.5 6.5 0 1 0 13 0 a6.5 6.5 0 1 0 -13 0zM578.52 847.76 a6.5 6.5 0 1 0 13 0 a6.5 6.5 0 1 0 -13 0zM522.23 815.26 a6.5 6.5 0 1 0 13 0 a6.5 6.5 0 1 0 -13 0zM522.23 750.26 a6.5 6.5 0 1 0 13 0 a6.5 6.5 0 1 0 -13 0zM634.82 1010.26 a6.5 6.5 0 1 0 13 0 a6.5 6.5 0 1 0 -13 0zM691.11 1042.76 a6.5 6.5 0 1 0 13 0 a6.5 6.5 0 1 0 -13 0zM691.11 1107.76 a6.5 6.5 0 1 0 13 0 a6.5 6.5 0 1 0 -13 0zM634.82 1140.26 a6.5 6.5 0 1 0 13 0 a6.5 6.5 0 1 0 -13 0zM691.11 -62.24 a6.5 6.5 0 1 0 13 0 a6.5 6.5 0 1 0 -13 0zM747.4 -29.74 a6.5 6.5 0 1 0 13 0 a6.5 6.5 0 1 0 -13 0zM747.4 35.26 a6.5 6.5 0 1 0 13 0 a6.5 6.5 0 1 0 -13 0zM691.11 67.76 a6.5 6.5 0 1 0 13 0 a6.5 6.5 0 1 0 -13 0zM747.4 230.26 a6.5 6.5 0 1 0 13 0 a6.5 6.5 0 1 0 -13 0zM803.7 262.76 a6.5 6.5 0 1 0 13 0 a6.5 6.5 0 1 0 -13 0zM803.7 327.76 a6.5 6.5 0 1 0 13 0 a6.5 6.5 0 1 0 -13 0zM747.4 360.26 a6.5 6.5 0 1 0 13 0 a6.5 6.5 0 1 0 -13 0zM747.4 425.26 a6.5 6.5 0 1 0 13 0 a6.5 6.5 0 1 0 -13 0zM803.7 457.76 a6.5 6.5 0 1 0 13 0 a6.5 6.5 0 1 0 -13 0zM803.7 522.76 a6.5 6.5 0 1 0 13 0 a6.5 6.5 0 1 0 -13 0zM747.4 555.26 a6.5 6.5 0 1 0 13 0 a6.5 6.5 0 1 0 -13 0zM691.11 522.76 a6.5 6.5 0 1 0 13 0 a6.5 6.5 0 1 0 -13 0zM691.11 457.76 a6.5 6.5 0 1 0 13 0 a6.5 6.5 0 1 0 -13 0zM747.4 620.26 a6.5 6.5 0 1 0 13 0 a6.5 6.5 0 1 0 -13 0zM634.82 555.26 a6.5 6.5 0 1 0 13 0 a6.5 6.5 0 1 0 -13 0zM803.7 652.76 a6.5 6.5 0 1 0 13 0 a6.5 6.5 0 1 0 -13 0zM803.7 717.76 a6.5 6.5 0 1 0 13 0 a6.5 6.5 0 1 0 -13 0zM747.4 750.26 a6.5 6.5 0 1 0 13 0 a6.5 6.5 0 1 0 -13 0zM747.4 1010.26 a6.5 6.5 0 1 0 13 0 a6.5 6.5 0 1 0 -13 0zM803.7 1042.76 a6.5 6.5 0 1 0 13 0 a6.5 6.5 0 1 0 -13 0zM803.7 1107.76 a6.5 6.5 0 1 0 13 0 a6.5 6.5 0 1 0 -13 0zM747.4 1140.26 a6.5 6.5 0 1 0 13 0 a6.5 6.5 0 1 0 -13 0zM803.7 -62.24 a6.5 6.5 0 1 0 13 0 a6.5 6.5 0 1 0 -13 0zM859.99 -29.74 a6.5 6.5 0 1 0 13 0 a6.5 6.5 0 1 0 -13 0zM859.99 35.26 a6.5 6.5 0 1 0 13 0 a6.5 6.5 0 1 0 -13 0zM803.7 67.76 a6.5 6.5 0 1 0 13 0 a6.5 6.5 0 1 0 -13 0zM803.7 132.76 a6.5 6.5 0 1 0 13 0 a6.5 6.5 0 1 0 -13 0zM859.99 165.26 a6.5 6.5 0 1 0 13 0 a6.5 6.5 0 1 0 -13 0zM859.99 230.26 a6.5 6.5 0 1 0 13 0 a6.5 6.5 0 1 0 -13 0zM747.4 165.26 a6.5 6.5 0 1 0 13 0 a6.5 6.5 0 1 0 -13 0zM916.28 262.76 a6.5 6.5 0 1 0 13 0 a6.5 6.5 0 1 0 -13 0zM916.28 327.76 a6.5 6.5 0 1 0 13 0 a6.5 6.5 0 1 0 -13 0zM859.99 360.26 a6.5 6.5 0 1 0 13 0 a6.5 6.5 0 1 0 -13 0zM859.99 620.26 a6.5 6.5 0 1 0 13 0 a6.5 6.5 0 1 0 -13 0zM916.28 652.76 a6.5 6.5 0 1 0 13 0 a6.5 6.5 0 1 0 -13 0zM916.28 717.76 a6.5 6.5 0 1 0 13 0 a6.5 6.5 0 1 0 -13 0zM859.99 750.26 a6.5 6.5 0 1 0 13 0 a6.5 6.5 0 1 0 -13 0zM859.99 815.26 a6.5 6.5 0 1 0 13 0 a6.5 6.5 0 1 0 -13 0zM803.7 847.76 a6.5 6.5 0 1 0 13 0 a6.5 6.5 0 1 0 -13 0zM747.4 815.26 a6.5 6.5 0 1 0 13 0 a6.5 6.5 0 1 0 -13 0zM859.99 1010.26 a6.5 6.5 0 1 0 13 0 a6.5 6.5 0 1 0 -13 0zM916.28 1042.76 a6.5 6.5 0 1 0 13 0 a6.5 6.5 0 1 0 -13 0zM916.28 1107.76 a6.5 6.5 0 1 0 13 0 a6.5 6.5 0 1 0 -13 0zM859.99 1140.26 a6.5 6.5 0 1 0 13 0 a6.5 6.5 0 1 0 -13 0zM972.58 230.26 a6.5 6.5 0 1 0 13 0 a6.5 6.5 0 1 0 -13 0zM1028.87 262.76 a6.5 6.5 0 1 0 13 0 a6.5 6.5 0 1 0 -13 0zM1028.87 327.76 a6.5 6.5 0 1 0 13 0 a6.5 6.5 0 1 0 -13 0zM972.58 360.26 a6.5 6.5 0 1 0 13 0 a6.5 6.5 0 1 0 -13 0zM972.58 425.26 a6.5 6.5 0 1 0 13 0 a6.5 6.5 0 1 0 -13 0zM916.28 457.76 a6.5 6.5 0 1 0 13 0 a6.5 6.5 0 1 0 -13 0zM859.99 425.26 a6.5 6.5 0 1 0 13 0 a6.5 6.5 0 1 0 -13 0zM972.58 750.26 a6.5 6.5 0 1 0 13 0 a6.5 6.5 0 1 0 -13 0zM972.58 815.26 a6.5 6.5 0 1 0 13 0 a6.5 6.5 0 1 0 -13 0zM916.28 847.76 a6.5 6.5 0 1 0 13 0 a6.5 6.5 0 1 0 -13 0zM916.28 912.76 a6.5 6.5 0 1 0 13 0 a6.5 6.5 0 1 0 -13 0zM972.58 945.26 a6.5 6.5 0 1 0 13 0 a6.5 6.5 0 1 0 -13 0zM972.58 1010.26 a6.5 6.5 0 1 0 13 0 a6.5 6.5 0 1 0 -13 0zM859.99 945.26 a6.5 6.5 0 1 0 13 0 a6.5 6.5 0 1 0 -13 0zM1028.87 1042.76 a6.5 6.5 0 1 0 13 0 a6.5 6.5 0 1 0 -13 0zM1028.87 1107.76 a6.5 6.5 0 1 0 13 0 a6.5 6.5 0 1 0 -13 0zM972.58 1140.26 a6.5 6.5 0 1 0 13 0 a6.5 6.5 0 1 0 -13 0zM1028.87 -62.24 a6.5 6.5 0 1 0 13 0 a6.5 6.5 0 1 0 -13 0zM1085.16 -29.74 a6.5 6.5 0 1 0 13 0 a6.5 6.5 0 1 0 -13 0zM1085.16 35.26 a6.5 6.5 0 1 0 13 0 a6.5 6.5 0 1 0 -13 0zM1028.87 67.76 a6.5 6.5 0 1 0 13 0 a6.5 6.5 0 1 0 -13 0zM972.58 35.26 a6.5 6.5 0 1 0 13 0 a6.5 6.5 0 1 0 -13 0zM972.58 -29.74 a6.5 6.5 0 1 0 13 0 a6.5 6.5 0 1 0 -13 0zM1141.45 67.76 a6.5 6.5 0 1 0 13 0 a6.5 6.5 0 1 0 -13 0zM1141.45 132.76 a6.5 6.5 0 1 0 13 0 a6.5 6.5 0 1 0 -13 0zM1085.16 165.26 a6.5 6.5 0 1 0 13 0 a6.5 6.5 0 1 0 -13 0zM1028.87 132.76 a6.5 6.5 0 1 0 13 0 a6.5 6.5 0 1 0 -13 0zM1085.16 230.26 a6.5 6.5 0 1 0 13 0 a6.5 6.5 0 1 0 -13 0zM1141.45 262.76 a6.5 6.5 0 1 0 13 0 a6.5 6.5 0 1 0 -13 0zM1141.45 327.76 a6.5 6.5 0 1 0 13 0 a6.5 6.5 0 1 0 -13 0zM1085.16 360.26 a6.5 6.5 0 1 0 13 0 a6.5 6.5 0 1 0 -13 0zM1085.16 425.26 a6.5 6.5 0 1 0 13 0 a6.5 6.5 0 1 0 -13 0zM1141.45 457.76 a6.5 6.5 0 1 0 13 0 a6.5 6.5 0 1 0 -13 0zM1141.45 522.76 a6.5 6.5 0 1 0 13 0 a6.5 6.5 0 1 0 -13 0zM1085.16 555.26 a6.5 6.5 0 1 0 13 0 a6.5 6.5 0 1 0 -13 0zM1028.87 522.76 a6.5 6.5 0 1 0 13 0 a6.5 6.5 0 1 0 -13 0zM1028.87 457.76 a6.5 6.5 0 1 0 13 0 a6.5 6.5 0 1 0 -13 0zM1085.16 620.26 a6.5 6.5 0 1 0 13 0 a6.5 6.5 0 1 0 -13 0zM1028.87 652.76 a6.5 6.5 0 1 0 13 0 a6.5 6.5 0 1 0 -13 0zM972.58 620.26 a6.5 6.5 0 1 0 13 0 a6.5 6.5 0 1 0 -13 0zM972.58 555.26 a6.5 6.5 0 1 0 13 0 a6.5 6.5 0 1 0 -13 0zM1028.87 717.76 a6.5 6.5 0 1 0 13 0 a6.5 6.5 0 1 0 -13 0zM1085.16 750.26 a6.5 6.5 0 1 0 13 0 a6.5 6.5 0 1 0 -13 0zM1085.16 815.26 a6.5 6.5 0 1 0 13 0 a6.5 6.5 0 1 0 -13 0zM1028.87 847.76 a6.5 6.5 0 1 0 13 0 a6.5 6.5 0 1 0 -13 0zM1141.45 847.76 a6.5 6.5 0 1 0 13 0 a6.5 6.5 0 1 0 -13 0zM1141.45 912.76 a6.5 6.5 0 1 0 13 0 a6.5 6.5 0 1 0 -13 0zM1085.16 945.26 a6.5 6.5 0 1 0 13 0 a6.5 6.5 0 1 0 -13 0zM1028.87 912.76 a6.5 6.5 0 1 0 13 0 a6.5 6.5 0 1 0 -13 0zM1197.75 165.26 a6.5 6.5 0 1 0 13 0 a6.5 6.5 0 1 0 -13 0zM1197.75 230.26 a6.5 6.5 0 1 0 13 0 a6.5 6.5 0 1 0 -13 0zM1197.75 360.26 a6.5 6.5 0 1 0 13 0 a6.5 6.5 0 1 0 -13 0zM1197.75 425.26 a6.5 6.5 0 1 0 13 0 a6.5 6.5 0 1 0 -13 0zM1254.04 457.76 a6.5 6.5 0 1 0 13 0 a6.5 6.5 0 1 0 -13 0zM1254.04 522.76 a6.5 6.5 0 1 0 13 0 a6.5 6.5 0 1 0 -13 0zM1197.75 555.26 a6.5 6.5 0 1 0 13 0 a6.5 6.5 0 1 0 -13 0zM1197.75 620.26 a6.5 6.5 0 1 0 13 0 a6.5 6.5 0 1 0 -13 0zM1141.45 652.76 a6.5 6.5 0 1 0 13 0 a6.5 6.5 0 1 0 -13 0zM1254.04 652.76 a6.5 6.5 0 1 0 13 0 a6.5 6.5 0 1 0 -13 0zM1254.04 717.76 a6.5 6.5 0 1 0 13 0 a6.5 6.5 0 1 0 -13 0zM1197.75 750.26 a6.5 6.5 0 1 0 13 0 a6.5 6.5 0 1 0 -13 0zM1141.45 717.76 a6.5 6.5 0 1 0 13 0 a6.5 6.5 0 1 0 -13 0zM1197.75 945.26 a6.5 6.5 0 1 0 13 0 a6.5 6.5 0 1 0 -13 0zM1197.75 1010.26 a6.5 6.5 0 1 0 13 0 a6.5 6.5 0 1 0 -13 0zM1141.45 1042.76 a6.5 6.5 0 1 0 13 0 a6.5 6.5 0 1 0 -13 0zM1085.16 1010.26 a6.5 6.5 0 1 0 13 0 a6.5 6.5 0 1 0 -13 0zM1254.04 1042.76 a6.5 6.5 0 1 0 13 0 a6.5 6.5 0 1 0 -13 0zM1254.04 1107.76 a6.5 6.5 0 1 0 13 0 a6.5 6.5 0 1 0 -13 0zM1197.75 1140.26 a6.5 6.5 0 1 0 13 0 a6.5 6.5 0 1 0 -13 0zM1141.45 1107.76 a6.5 6.5 0 1 0 13 0 a6.5 6.5 0 1 0 -13 0zM1310.33 35.26 a6.5 6.5 0 1 0 13 0 a6.5 6.5 0 1 0 -13 0zM1366.63 67.76 a6.5 6.5 0 1 0 13 0 a6.5 6.5 0 1 0 -13 0zM1366.63 132.76 a6.5 6.5 0 1 0 13 0 a6.5 6.5 0 1 0 -13 0zM1310.33 165.26 a6.5 6.5 0 1 0 13 0 a6.5 6.5 0 1 0 -13 0zM1254.04 132.76 a6.5 6.5 0 1 0 13 0 a6.5 6.5 0 1 0 -13 0zM1254.04 67.76 a6.5 6.5 0 1 0 13 0 a6.5 6.5 0 1 0 -13 0zM1254.04 327.76 a6.5 6.5 0 1 0 13 0 a6.5 6.5 0 1 0 -13 0zM1310.33 360.26 a6.5 6.5 0 1 0 13 0 a6.5 6.5 0 1 0 -13 0zM1310.33 425.26 a6.5 6.5 0 1 0 13 0 a6.5 6.5 0 1 0 -13 0zM1366.63 457.76 a6.5 6.5 0 1 0 13 0 a6.5 6.5 0 1 0 -13 0zM1366.63 522.76 a6.5 6.5 0 1 0 13 0 a6.5 6.5 0 1 0 -13 0zM1310.33 555.26 a6.5 6.5 0 1 0 13 0 a6.5 6.5 0 1 0 -13 0zM1310.33 1010.26 a6.5 6.5 0 1 0 13 0 a6.5 6.5 0 1 0 -13 0zM1366.63 1042.76 a6.5 6.5 0 1 0 13 0 a6.5 6.5 0 1 0 -13 0zM1366.63 1107.76 a6.5 6.5 0 1 0 13 0 a6.5 6.5 0 1 0 -13 0zM1310.33 1140.26 a6.5 6.5 0 1 0 13 0 a6.5 6.5 0 1 0 -13 0zM1366.63 -62.24 a6.5 6.5 0 1 0 13 0 a6.5 6.5 0 1 0 -13 0zM1422.92 -29.74 a6.5 6.5 0 1 0 13 0 a6.5 6.5 0 1 0 -13 0zM1422.92 35.26 a6.5 6.5 0 1 0 13 0 a6.5 6.5 0 1 0 -13 0zM1310.33 -29.74 a6.5 6.5 0 1 0 13 0 a6.5 6.5 0 1 0 -13 0zM1422.92 165.26 a6.5 6.5 0 1 0 13 0 a6.5 6.5 0 1 0 -13 0zM1422.92 230.26 a6.5 6.5 0 1 0 13 0 a6.5 6.5 0 1 0 -13 0zM1366.63 262.76 a6.5 6.5 0 1 0 13 0 a6.5 6.5 0 1 0 -13 0zM1310.33 230.26 a6.5 6.5 0 1 0 13 0 a6.5 6.5 0 1 0 -13 0zM1366.63 327.76 a6.5 6.5 0 1 0 13 0 a6.5 6.5 0 1 0 -13 0zM1422.92 360.26 a6.5 6.5 0 1 0 13 0 a6.5 6.5 0 1 0 -13 0zM1422.92 425.26 a6.5 6.5 0 1 0 13 0 a6.5 6.5 0 1 0 -13 0zM1479.21 457.76 a6.5 6.5 0 1 0 13 0 a6.5 6.5 0 1 0 -13 0zM1479.21 522.76 a6.5 6.5 0 1 0 13 0 a6.5 6.5 0 1 0 -13 0zM1422.92 555.26 a6.5 6.5 0 1 0 13 0 a6.5 6.5 0 1 0 -13 0zM1366.63 717.76 a6.5 6.5 0 1 0 13 0 a6.5 6.5 0 1 0 -13 0zM1422.92 750.26 a6.5 6.5 0 1 0 13 0 a6.5 6.5 0 1 0 -13 0zM1422.92 815.26 a6.5 6.5 0 1 0 13 0 a6.5 6.5 0 1 0 -13 0zM1366.63 847.76 a6.5 6.5 0 1 0 13 0 a6.5 6.5 0 1 0 -13 0zM1310.33 815.26 a6.5 6.5 0 1 0 13 0 a6.5 6.5 0 1 0 -13 0zM1310.33 750.26 a6.5 6.5 0 1 0 13 0 a6.5 6.5 0 1 0 -13 0zM1535.51 35.26 a6.5 6.5 0 1 0 13 0 a6.5 6.5 0 1 0 -13 0zM1591.8 67.76 a6.5 6.5 0 1 0 13 0 a6.5 6.5 0 1 0 -13 0zM1591.8 132.76 a6.5 6.5 0 1 0 13 0 a6.5 6.5 0 1 0 -13 0zM1535.51 165.26 a6.5 6.5 0 1 0 13 0 a6.5 6.5 0 1 0 -13 0zM1479.21 132.76 a6.5 6.5 0 1 0 13 0 a6.5 6.5 0 1 0 -13 0zM1479.21 67.76 a6.5 6.5 0 1 0 13 0 a6.5 6.5 0 1 0 -13 0zM1535.51 620.26 a6.5 6.5 0 1 0 13 0 a6.5 6.5 0 1 0 -13 0zM1591.8 652.76 a6.5 6.5 0 1 0 13 0 a6.5 6.5 0 1 0 -13 0zM1591.8 717.76 a6.5 6.5 0 1 0 13 0 a6.5 6.5 0 1 0 -13 0zM1535.51 750.26 a6.5 6.5 0 1 0 13 0 a6.5 6.5 0 1 0 -13 0zM1479.21 717.76 a6.5 6.5 0 1 0 13 0 a6.5 6.5 0 1 0 -13 0zM1479.21 652.76 a6.5 6.5 0 1 0 13 0 a6.5 6.5 0 1 0 -13 0zM1535.51 1010.26 a6.5 6.5 0 1 0 13 0 a6.5 6.5 0 1 0 -13 0zM1591.8 1042.76 a6.5 6.5 0 1 0 13 0 a6.5 6.5 0 1 0 -13 0zM1591.8 1107.76 a6.5 6.5 0 1 0 13 0 a6.5 6.5 0 1 0 -13 0zM1535.51 1140.26 a6.5 6.5 0 1 0 13 0 a6.5 6.5 0 1 0 -13 0zM1479.21 1107.76 a6.5 6.5 0 1 0 13 0 a6.5 6.5 0 1 0 -13 0zM1479.21 1042.76 a6.5 6.5 0 1 0 13 0 a6.5 6.5 0 1 0 -13 0zM1648.09 230.26 a6.5 6.5 0 1 0 13 0 a6.5 6.5 0 1 0 -13 0zM1704.39 262.76 a6.5 6.5 0 1 0 13 0 a6.5 6.5 0 1 0 -13 0zM1704.39 327.76 a6.5 6.5 0 1 0 13 0 a6.5 6.5 0 1 0 -13 0zM1648.09 360.26 a6.5 6.5 0 1 0 13 0 a6.5 6.5 0 1 0 -13 0zM1591.8 327.76 a6.5 6.5 0 1 0 13 0 a6.5 6.5 0 1 0 -13 0zM1591.8 262.76 a6.5 6.5 0 1 0 13 0 a6.5 6.5 0 1 0 -13 0zM1648.09 425.26 a6.5 6.5 0 1 0 13 0 a6.5 6.5 0 1 0 -13 0zM1591.8 457.76 a6.5 6.5 0 1 0 13 0 a6.5 6.5 0 1 0 -13 0zM1535.51 425.26 a6.5 6.5 0 1 0 13 0 a6.5 6.5 0 1 0 -13 0zM1535.51 360.26 a6.5 6.5 0 1 0 13 0 a6.5 6.5 0 1 0 -13 0zM1704.39 457.76 a6.5 6.5 0 1 0 13 0 a6.5 6.5 0 1 0 -13 0zM1704.39 522.76 a6.5 6.5 0 1 0 13 0 a6.5 6.5 0 1 0 -13 0zM1648.09 555.26 a6.5 6.5 0 1 0 13 0 a6.5 6.5 0 1 0 -13 0zM1591.8 522.76 a6.5 6.5 0 1 0 13 0 a6.5 6.5 0 1 0 -13 0zM1648.09 750.26 a6.5 6.5 0 1 0 13 0 a6.5 6.5 0 1 0 -13 0zM1648.09 815.26 a6.5 6.5 0 1 0 13 0 a6.5 6.5 0 1 0 -13 0zM1591.8 847.76 a6.5 6.5 0 1 0 13 0 a6.5 6.5 0 1 0 -13 0zM1535.51 815.26 a6.5 6.5 0 1 0 13 0 a6.5 6.5 0 1 0 -13 0zM1704.39 847.76 a6.5 6.5 0 1 0 13 0 a6.5 6.5 0 1 0 -13 0zM1704.39 912.76 a6.5 6.5 0 1 0 13 0 a6.5 6.5 0 1 0 -13 0zM1648.09 945.26 a6.5 6.5 0 1 0 13 0 a6.5 6.5 0 1 0 -13 0zM1591.8 912.76 a6.5 6.5 0 1 0 13 0 a6.5 6.5 0 1 0 -13 0zM1704.39 -62.24 a6.5 6.5 0 1 0 13 0 a6.5 6.5 0 1 0 -13 0zM1760.68 -29.74 a6.5 6.5 0 1 0 13 0 a6.5 6.5 0 1 0 -13 0zM1760.68 35.26 a6.5 6.5 0 1 0 13 0 a6.5 6.5 0 1 0 -13 0zM1704.39 67.76 a6.5 6.5 0 1 0 13 0 a6.5 6.5 0 1 0 -13 0zM1648.09 35.26 a6.5 6.5 0 1 0 13 0 a6.5 6.5 0 1 0 -13 0zM1648.09 -29.74 a6.5 6.5 0 1 0 13 0 a6.5 6.5 0 1 0 -13 0zM1816.97 67.76 a6.5 6.5 0 1 0 13 0 a6.5 6.5 0 1 0 -13 0zM1816.97 132.76 a6.5 6.5 0 1 0 13 0 a6.5 6.5 0 1 0 -13 0zM1760.68 165.26 a6.5 6.5 0 1 0 13 0 a6.5 6.5 0 1 0 -13 0zM1704.39 132.76 a6.5 6.5 0 1 0 13 0 a6.5 6.5 0 1 0 -13 0zM1760.68 555.26 a6.5 6.5 0 1 0 13 0 a6.5 6.5 0 1 0 -13 0zM1760.68 620.26 a6.5 6.5 0 1 0 13 0 a6.5 6.5 0 1 0 -13 0zM1704.39 652.76 a6.5 6.5 0 1 0 13 0 a6.5 6.5 0 1 0 -13 0zM1648.09 620.26 a6.5 6.5 0 1 0 13 0 a6.5 6.5 0 1 0 -13 0zM1704.39 717.76 a6.5 6.5 0 1 0 13 0 a6.5 6.5 0 1 0 -13 0zM1760.68 750.26 a6.5 6.5 0 1 0 13 0 a6.5 6.5 0 1 0 -13 0zM1760.68 815.26 a6.5 6.5 0 1 0 13 0 a6.5 6.5 0 1 0 -13 0zM1816.97 847.76 a6.5 6.5 0 1 0 13 0 a6.5 6.5 0 1 0 -13 0zM1816.97 912.76 a6.5 6.5 0 1 0 13 0 a6.5 6.5 0 1 0 -13 0zM1760.68 945.26 a6.5 6.5 0 1 0 13 0 a6.5 6.5 0 1 0 -13 0zM1760.68 1010.26 a6.5 6.5 0 1 0 13 0 a6.5 6.5 0 1 0 -13 0zM1816.97 1042.76 a6.5 6.5 0 1 0 13 0 a6.5 6.5 0 1 0 -13 0zM1816.97 1107.76 a6.5 6.5 0 1 0 13 0 a6.5 6.5 0 1 0 -13 0zM1760.68 1140.26 a6.5 6.5 0 1 0 13 0 a6.5 6.5 0 1 0 -13 0zM1704.39 1107.76 a6.5 6.5 0 1 0 13 0 a6.5 6.5 0 1 0 -13 0zM1704.39 1042.76 a6.5 6.5 0 1 0 13 0 a6.5 6.5 0 1 0 -13 0zM1816.97 -62.24 a6.5 6.5 0 1 0 13 0 a6.5 6.5 0 1 0 -13 0zM1873.27 -29.74 a6.5 6.5 0 1 0 13 0 a6.5 6.5 0 1 0 -13 0zM1873.27 35.26 a6.5 6.5 0 1 0 13 0 a6.5 6.5 0 1 0 -13 0zM1929.56 67.76 a6.5 6.5 0 1 0 13 0 a6.5 6.5 0 1 0 -13 0zM1929.56 132.76 a6.5 6.5 0 1 0 13 0 a6.5 6.5 0 1 0 -13 0zM1873.27 165.26 a6.5 6.5 0 1 0 13 0 a6.5 6.5 0 1 0 -13 0zM1873.27 815.26 a6.5 6.5 0 1 0 13 0 a6.5 6.5 0 1 0 -13 0zM1929.56 847.76 a6.5 6.5 0 1 0 13 0 a6.5 6.5 0 1 0 -13 0zM1929.56 912.76 a6.5 6.5 0 1 0 13 0 a6.5 6.5 0 1 0 -13 0zM1873.27 945.26 a6.5 6.5 0 1 0 13 0 a6.5 6.5 0 1 0 -13 0zM1873.27 1010.26 a6.5 6.5 0 1 0 13 0 a6.5 6.5 0 1 0 -13 0zM1929.56 -62.24 a6.5 6.5 0 1 0 13 0 a6.5 6.5 0 1 0 -13 0zM1985.85 -29.74 a6.5 6.5 0 1 0 13 0 a6.5 6.5 0 1 0 -13 0zM1985.85 35.26 a6.5 6.5 0 1 0 13 0 a6.5 6.5 0 1 0 -13 0zM2042.15 67.76 a6.5 6.5 0 1 0 13 0 a6.5 6.5 0 1 0 -13 0zM2042.15 132.76 a6.5 6.5 0 1 0 13 0 a6.5 6.5 0 1 0 -13 0zM1985.85 165.26 a6.5 6.5 0 1 0 13 0 a6.5 6.5 0 1 0 -13 0zM1985.85 425.26 a6.5 6.5 0 1 0 13 0 a6.5 6.5 0 1 0 -13 0zM2042.15 457.76 a6.5 6.5 0 1 0 13 0 a6.5 6.5 0 1 0 -13 0zM2042.15 522.76 a6.5 6.5 0 1 0 13 0 a6.5 6.5 0 1 0 -13 0zM1985.85 555.26 a6.5 6.5 0 1 0 13 0 a6.5 6.5 0 1 0 -13 0zM1929.56 522.76 a6.5 6.5 0 1 0 13 0 a6.5 6.5 0 1 0 -13 0zM1929.56 457.76 a6.5 6.5 0 1 0 13 0 a6.5 6.5 0 1 0 -13 0zM1985.85 620.26 a6.5 6.5 0 1 0 13 0 a6.5 6.5 0 1 0 -13 0zM1929.56 652.76 a6.5 6.5 0 1 0 13 0 a6.5 6.5 0 1 0 -13 0zM1873.27 620.26 a6.5 6.5 0 1 0 13 0 a6.5 6.5 0 1 0 -13 0zM1873.27 555.26 a6.5 6.5 0 1 0 13 0 a6.5 6.5 0 1 0 -13 0zM1985.85 815.26 a6.5 6.5 0 1 0 13 0 a6.5 6.5 0 1 0 -13 0zM2042.15 847.76 a6.5 6.5 0 1 0 13 0 a6.5 6.5 0 1 0 -13 0zM2042.15 912.76 a6.5 6.5 0 1 0 13 0 a6.5 6.5 0 1 0 -13 0zM1985.85 945.26 a6.5 6.5 0 1 0 13 0 a6.5 6.5 0 1 0 -13 0z" fill="rgba(0, 0, 0, 0)"></path><path d="M9.17 -18.33L49.87 5.17L49.87 52.17L9.17 75.67L-31.53 52.17L-31.53 5.17zM49.87 52.17L90.58 75.67L90.58 122.67L49.87 146.17L9.17 122.67L9.17 75.67zM49.87 193.17L90.58 216.67L90.58 263.67L49.87 287.17L9.17 263.67L9.17 216.67zM49.87 616.17L90.58 639.67L90.58 686.67L49.87 710.17L9.17 686.67L9.17 639.67zM90.58 -18.33L131.28 5.17L131.28 52.17L90.58 75.67L49.87 52.17L49.87 5.17zM131.28 52.17L171.99 75.67L171.99 122.67L131.28 146.17L90.58 122.67L90.58 75.67zM90.58 122.67L131.28 146.17L131.28 193.17L90.58 216.67L49.87 193.17L49.87 146.17zM131.28 193.17L171.99 216.67L171.99 263.67L131.28 287.17L90.58 263.67L90.58 216.67zM90.58 263.67L131.28 287.17L131.28 334.17L90.58 357.67L49.87 334.17L49.87 287.17zM90.58 404.67L131.28 428.17L131.28 475.17L90.58 498.67L49.87 475.17L49.87 428.17zM90.58 545.67L131.28 569.17L131.28 616.17L90.58 639.67L49.87 616.17L49.87 569.17zM90.58 686.67L131.28 710.17L131.28 757.17L90.58 780.67L49.87 757.17L49.87 710.17zM90.58 827.67L131.28 851.17L131.28 898.17L90.58 921.67L49.87 898.17L49.87 851.17zM131.28 1039.17L171.99 1062.67L171.99 1109.67L131.28 1133.17L90.58 1109.67L90.58 1062.67zM212.69 52.17L253.4 75.67L253.4 122.67L212.69 146.17L171.99 122.67L171.99 75.67zM171.99 122.67L212.69 146.17L212.69 193.17L171.99 216.67L131.28 193.17L131.28 146.17zM171.99 404.67L212.69 428.17L212.69 475.17L171.99 498.67L131.28 475.17L131.28 428.17zM212.69 475.17L253.4 498.67L253.4 545.67L212.69 569.17L171.99 545.67L171.99 498.67zM171.99 545.67L212.69 569.17L212.69 616.17L171.99 639.67L131.28 616.17L131.28 569.17zM212.69 616.17L253.4 639.67L253.4 686.67L212.69 710.17L171.99 686.67L171.99 639.67zM171.99 686.67L212.69 710.17L212.69 757.17L171.99 780.67L131.28 757.17L131.28 710.17zM171.99 827.67L212.69 851.17L212.69 898.17L171.99 921.67L131.28 898.17L131.28 851.17zM171.99 968.67L212.69 992.17L212.69 1039.17L171.99 1062.67L131.28 1039.17L131.28 992.17zM212.69 1039.17L253.4 1062.67L253.4 1109.67L212.69 1133.17L171.99 1109.67L171.99 1062.67zM294.1 52.17L334.8 75.67L334.8 122.67L294.1 146.17L253.4 122.67L253.4 75.67zM253.4 404.67L294.1 428.17L294.1 475.17L253.4 498.67L212.69 475.17L212.69 428.17zM253.4 545.67L294.1 569.17L294.1 616.17L253.4 639.67L212.69 616.17L212.69 569.17zM253.4 686.67L294.1 710.17L294.1 757.17L253.4 780.67L212.69 757.17L212.69 710.17zM294.1 757.17L334.8 780.67L334.8 827.67L294.1 851.17L253.4 827.67L253.4 780.67zM253.4 968.67L294.1 992.17L294.1 1039.17L253.4 1062.67L212.69 1039.17L212.69 992.17zM334.8 -18.33L375.51 5.17L375.51 52.17L334.8 75.67L294.1 52.17L294.1 5.17zM375.51 475.17L416.21 498.67L416.21 545.67L375.51 569.17L334.8 545.67L334.8 498.67zM375.51 757.17L416.21 780.67L416.21 827.67L375.51 851.17L334.8 827.67L334.8 780.67zM334.8 827.67L375.51 851.17L375.51 898.17L334.8 921.67L294.1 898.17L294.1 851.17zM416.21 -18.33L456.92 5.17L456.92 52.17L416.21 75.67L375.51 52.17L375.51 5.17zM456.92 52.17L497.62 75.67L497.62 122.67L456.92 146.17L416.21 122.67L416.21 75.67zM416.21 122.67L456.92 146.17L456.92 193.17L416.21 216.67L375.51 193.17L375.51 146.17zM416.21 686.67L456.92 710.17L456.92 757.17L416.21 780.67L375.51 757.17L375.51 710.17zM456.92 757.17L497.62 780.67L497.62 827.67L456.92 851.17L416.21 827.67L416.21 780.67zM456.92 898.17L497.62 921.67L497.62 968.67L456.92 992.17L416.21 968.67L416.21 921.67zM456.92 1039.17L497.62 1062.67L497.62 1109.67L456.92 1133.17L416.21 1109.67L416.21 1062.67zM497.62 -18.33L538.33 5.17L538.33 52.17L497.62 75.67L456.92 52.17L456.92 5.17zM497.62 122.67L538.33 146.17L538.33 193.17L497.62 216.67L456.92 193.17L456.92 146.17zM497.62 263.67L538.33 287.17L538.33 334.17L497.62 357.67L456.92 334.17L456.92 287.17zM538.33 475.17L579.03 498.67L579.03 545.67L538.33 569.17L497.62 545.67L497.62 498.67zM497.62 686.67L538.33 710.17L538.33 757.17L497.62 780.67L456.92 757.17L456.92 710.17zM497.62 827.67L538.33 851.17L538.33 898.17L497.62 921.67L456.92 898.17L456.92 851.17zM538.33 898.17L579.03 921.67L579.03 968.67L538.33 992.17L497.62 968.67L497.62 921.67zM497.62 968.67L538.33 992.17L538.33 1039.17L497.62 1062.67L456.92 1039.17L456.92 992.17zM579.03 122.67L619.74 146.17L619.74 193.17L579.03 216.67L538.33 193.17L538.33 146.17zM619.74 193.17L660.44 216.67L660.44 263.67L619.74 287.17L579.03 263.67L579.03 216.67zM579.03 404.67L619.74 428.17L619.74 475.17L579.03 498.67L538.33 475.17L538.33 428.17zM619.74 475.17L660.44 498.67L660.44 545.67L619.74 569.17L579.03 545.67L579.03 498.67zM619.74 616.17L660.44 639.67L660.44 686.67L619.74 710.17L579.03 686.67L579.03 639.67zM579.03 686.67L619.74 710.17L619.74 757.17L579.03 780.67L538.33 757.17L538.33 710.17zM619.74 757.17L660.44 780.67L660.44 827.67L619.74 851.17L579.03 827.67L579.03 780.67zM619.74 898.17L660.44 921.67L660.44 968.67L619.74 992.17L579.03 968.67L579.03 921.67zM619.74 1039.17L660.44 1062.67L660.44 1109.67L619.74 1133.17L579.03 1109.67L579.03 1062.67zM660.44 122.67L701.14 146.17L701.14 193.17L660.44 216.67L619.74 193.17L619.74 146.17zM660.44 404.67L701.14 428.17L701.14 475.17L660.44 498.67L619.74 475.17L619.74 428.17zM701.14 475.17L741.85 498.67L741.85 545.67L701.14 569.17L660.44 545.67L660.44 498.67zM660.44 545.67L701.14 569.17L701.14 616.17L660.44 639.67L619.74 616.17L619.74 569.17zM660.44 686.67L701.14 710.17L701.14 757.17L660.44 780.67L619.74 757.17L619.74 710.17zM701.14 757.17L741.85 780.67L741.85 827.67L701.14 851.17L660.44 827.67L660.44 780.67zM660.44 827.67L701.14 851.17L701.14 898.17L660.44 921.67L619.74 898.17L619.74 851.17zM701.14 1039.17L741.85 1062.67L741.85 1109.67L701.14 1133.17L660.44 1109.67L660.44 1062.67zM741.85 404.67L782.55 428.17L782.55 475.17L741.85 498.67L701.14 475.17L701.14 428.17zM782.55 616.17L823.26 639.67L823.26 686.67L782.55 710.17L741.85 686.67L741.85 639.67zM741.85 686.67L782.55 710.17L782.55 757.17L741.85 780.67L701.14 757.17L701.14 710.17zM741.85 827.67L782.55 851.17L782.55 898.17L741.85 921.67L701.14 898.17L701.14 851.17zM782.55 898.17L823.26 921.67L823.26 968.67L782.55 992.17L741.85 968.67L741.85 921.67zM863.96 193.17L904.67 216.67L904.67 263.67L863.96 287.17L823.26 263.67L823.26 216.67zM823.26 263.67L863.96 287.17L863.96 334.17L823.26 357.67L782.55 334.17L782.55 287.17zM863.96 334.17L904.67 357.67L904.67 404.67L863.96 428.17L823.26 404.67L823.26 357.67zM863.96 475.17L904.67 498.67L904.67 545.67L863.96 569.17L823.26 545.67L823.26 498.67zM863.96 616.17L904.67 639.67L904.67 686.67L863.96 710.17L823.26 686.67L823.26 639.67zM863.96 898.17L904.67 921.67L904.67 968.67L863.96 992.17L823.26 968.67L823.26 921.67zM904.67 -18.33L945.37 5.17L945.37 52.17L904.67 75.67L863.96 52.17L863.96 5.17zM945.37 52.17L986.07 75.67L986.07 122.67L945.37 146.17L904.67 122.67L904.67 75.67zM945.37 193.17L986.07 216.67L986.07 263.67L945.37 287.17L904.67 263.67L904.67 216.67zM904.67 263.67L945.37 287.17L945.37 334.17L904.67 357.67L863.96 334.17L863.96 287.17zM945.37 334.17L986.07 357.67L986.07 404.67L945.37 428.17L904.67 404.67L904.67 357.67zM904.67 404.67L945.37 428.17L945.37 475.17L904.67 498.67L863.96 475.17L863.96 428.17zM904.67 545.67L945.37 569.17L945.37 616.17L904.67 639.67L863.96 616.17L863.96 569.17zM945.37 616.17L986.07 639.67L986.07 686.67L945.37 710.17L904.67 686.67L904.67 639.67zM945.37 757.17L986.07 780.67L986.07 827.67L945.37 851.17L904.67 827.67L904.67 780.67zM986.07 122.67L1026.78 146.17L1026.78 193.17L986.07 216.67L945.37 193.17L945.37 146.17zM1026.78 475.17L1067.48 498.67L1067.48 545.67L1026.78 569.17L986.07 545.67L986.07 498.67zM1026.78 616.17L1067.48 639.67L1067.48 686.67L1026.78 710.17L986.07 686.67L986.07 639.67zM1026.78 757.17L1067.48 780.67L1067.48 827.67L1026.78 851.17L986.07 827.67L986.07 780.67zM986.07 968.67L1026.78 992.17L1026.78 1039.17L986.07 1062.67L945.37 1039.17L945.37 992.17zM1067.48 -18.33L1108.19 5.17L1108.19 52.17L1067.48 75.67L1026.78 52.17L1026.78 5.17zM1067.48 122.67L1108.19 146.17L1108.19 193.17L1067.48 216.67L1026.78 193.17L1026.78 146.17zM1108.19 193.17L1148.89 216.67L1148.89 263.67L1108.19 287.17L1067.48 263.67L1067.48 216.67zM1067.48 686.67L1108.19 710.17L1108.19 757.17L1067.48 780.67L1026.78 757.17L1026.78 710.17zM1067.48 827.67L1108.19 851.17L1108.19 898.17L1067.48 921.67L1026.78 898.17L1026.78 851.17zM1148.89 -18.33L1189.6 5.17L1189.6 52.17L1148.89 75.67L1108.19 52.17L1108.19 5.17zM1148.89 122.67L1189.6 146.17L1189.6 193.17L1148.89 216.67L1108.19 193.17L1108.19 146.17zM1148.89 263.67L1189.6 287.17L1189.6 334.17L1148.89 357.67L1108.19 334.17L1108.19 287.17zM1189.6 475.17L1230.3 498.67L1230.3 545.67L1189.6 569.17L1148.89 545.67L1148.89 498.67zM1148.89 545.67L1189.6 569.17L1189.6 616.17L1148.89 639.67L1108.19 616.17L1108.19 569.17zM1148.89 686.67L1189.6 710.17L1189.6 757.17L1148.89 780.67L1108.19 757.17L1108.19 710.17zM1189.6 898.17L1230.3 921.67L1230.3 968.67L1189.6 992.17L1148.89 968.67L1148.89 921.67zM1189.6 1039.17L1230.3 1062.67L1230.3 1109.67L1189.6 1133.17L1148.89 1109.67L1148.89 1062.67zM1271 193.17L1311.71 216.67L1311.71 263.67L1271 287.17L1230.3 263.67L1230.3 216.67zM1230.3 263.67L1271 287.17L1271 334.17L1230.3 357.67L1189.6 334.17L1189.6 287.17zM1271 334.17L1311.71 357.67L1311.71 404.67L1271 428.17L1230.3 404.67L1230.3 357.67zM1271 475.17L1311.71 498.67L1311.71 545.67L1271 569.17L1230.3 545.67L1230.3 498.67zM1271 616.17L1311.71 639.67L1311.71 686.67L1271 710.17L1230.3 686.67L1230.3 639.67zM1230.3 686.67L1271 710.17L1271 757.17L1230.3 780.67L1189.6 757.17L1189.6 710.17zM1311.71 122.67L1352.41 146.17L1352.41 193.17L1311.71 216.67L1271 193.17L1271 146.17zM1352.41 334.17L1393.12 357.67L1393.12 404.67L1352.41 428.17L1311.71 404.67L1311.71 357.67zM1311.71 686.67L1352.41 710.17L1352.41 757.17L1311.71 780.67L1271 757.17L1271 710.17zM1311.71 827.67L1352.41 851.17L1352.41 898.17L1311.71 921.67L1271 898.17L1271 851.17zM1352.41 898.17L1393.12 921.67L1393.12 968.67L1352.41 992.17L1311.71 968.67L1311.71 921.67zM1311.71 968.67L1352.41 992.17L1352.41 1039.17L1311.71 1062.67L1271 1039.17L1271 992.17zM1352.41 1039.17L1393.12 1062.67L1393.12 1109.67L1352.41 1133.17L1311.71 1109.67L1311.71 1062.67zM1393.12 -18.33L1433.82 5.17L1433.82 52.17L1393.12 75.67L1352.41 52.17L1352.41 5.17zM1433.82 193.17L1474.53 216.67L1474.53 263.67L1433.82 287.17L1393.12 263.67L1393.12 216.67zM1433.82 334.17L1474.53 357.67L1474.53 404.67L1433.82 428.17L1393.12 404.67L1393.12 357.67zM1433.82 616.17L1474.53 639.67L1474.53 686.67L1433.82 710.17L1393.12 686.67L1393.12 639.67zM1393.12 968.67L1433.82 992.17L1433.82 1039.17L1393.12 1062.67L1352.41 1039.17L1352.41 992.17zM1433.82 1039.17L1474.53 1062.67L1474.53 1109.67L1433.82 1133.17L1393.12 1109.67L1393.12 1062.67zM1474.53 -18.33L1515.23 5.17L1515.23 52.17L1474.53 75.67L1433.82 52.17L1433.82 5.17zM1474.53 122.67L1515.23 146.17L1515.23 193.17L1474.53 216.67L1433.82 193.17L1433.82 146.17zM1515.23 193.17L1555.94 216.67L1555.94 263.67L1515.23 287.17L1474.53 263.67L1474.53 216.67zM1515.23 334.17L1555.94 357.67L1555.94 404.67L1515.23 428.17L1474.53 404.67L1474.53 357.67zM1474.53 404.67L1515.23 428.17L1515.23 475.17L1474.53 498.67L1433.82 475.17L1433.82 428.17zM1515.23 1039.17L1555.94 1062.67L1555.94 1109.67L1515.23 1133.17L1474.53 1109.67L1474.53 1062.67zM1555.94 -18.33L1596.64 5.17L1596.64 52.17L1555.94 75.67L1515.23 52.17L1515.23 5.17zM1555.94 122.67L1596.64 146.17L1596.64 193.17L1555.94 216.67L1515.23 193.17L1515.23 146.17zM1555.94 545.67L1596.64 569.17L1596.64 616.17L1555.94 639.67L1515.23 616.17L1515.23 569.17zM1596.64 616.17L1637.34 639.67L1637.34 686.67L1596.64 710.17L1555.94 686.67L1555.94 639.67zM1555.94 686.67L1596.64 710.17L1596.64 757.17L1555.94 780.67L1515.23 757.17L1515.23 710.17zM1596.64 757.17L1637.34 780.67L1637.34 827.67L1596.64 851.17L1555.94 827.67L1555.94 780.67zM1596.64 898.17L1637.34 921.67L1637.34 968.67L1596.64 992.17L1555.94 968.67L1555.94 921.67zM1555.94 968.67L1596.64 992.17L1596.64 1039.17L1555.94 1062.67L1515.23 1039.17L1515.23 992.17zM1596.64 1039.17L1637.34 1062.67L1637.34 1109.67L1596.64 1133.17L1555.94 1109.67L1555.94 1062.67zM1678.05 52.17L1718.75 75.67L1718.75 122.67L1678.05 146.17L1637.34 122.67L1637.34 75.67zM1637.34 122.67L1678.05 146.17L1678.05 193.17L1637.34 216.67L1596.64 193.17L1596.64 146.17zM1678.05 193.17L1718.75 216.67L1718.75 263.67L1678.05 287.17L1637.34 263.67L1637.34 216.67zM1637.34 404.67L1678.05 428.17L1678.05 475.17L1637.34 498.67L1596.64 475.17L1596.64 428.17zM1637.34 827.67L1678.05 851.17L1678.05 898.17L1637.34 921.67L1596.64 898.17L1596.64 851.17zM1678.05 898.17L1718.75 921.67L1718.75 968.67L1678.05 992.17L1637.34 968.67L1637.34 921.67zM1637.34 968.67L1678.05 992.17L1678.05 1039.17L1637.34 1062.67L1596.64 1039.17L1596.64 992.17zM1678.05 1039.17L1718.75 1062.67L1718.75 1109.67L1678.05 1133.17L1637.34 1109.67L1637.34 1062.67zM1759.46 52.17L1800.16 75.67L1800.16 122.67L1759.46 146.17L1718.75 122.67L1718.75 75.67zM1759.46 193.17L1800.16 216.67L1800.16 263.67L1759.46 287.17L1718.75 263.67L1718.75 216.67zM1718.75 263.67L1759.46 287.17L1759.46 334.17L1718.75 357.67L1678.05 334.17L1678.05 287.17zM1759.46 475.17L1800.16 498.67L1800.16 545.67L1759.46 569.17L1718.75 545.67L1718.75 498.67zM1759.46 616.17L1800.16 639.67L1800.16 686.67L1759.46 710.17L1718.75 686.67L1718.75 639.67zM1718.75 686.67L1759.46 710.17L1759.46 757.17L1718.75 780.67L1678.05 757.17L1678.05 710.17zM1759.46 1039.17L1800.16 1062.67L1800.16 1109.67L1759.46 1133.17L1718.75 1109.67L1718.75 1062.67zM1840.87 52.17L1881.57 75.67L1881.57 122.67L1840.87 146.17L1800.16 122.67L1800.16 75.67zM1800.16 122.67L1840.87 146.17L1840.87 193.17L1800.16 216.67L1759.46 193.17L1759.46 146.17zM1840.87 193.17L1881.57 216.67L1881.57 263.67L1840.87 287.17L1800.16 263.67L1800.16 216.67zM1840.87 475.17L1881.57 498.67L1881.57 545.67L1840.87 569.17L1800.16 545.67L1800.16 498.67zM1840.87 616.17L1881.57 639.67L1881.57 686.67L1840.87 710.17L1800.16 686.67L1800.16 639.67zM1840.87 757.17L1881.57 780.67L1881.57 827.67L1840.87 851.17L1800.16 827.67L1800.16 780.67zM1800.16 827.67L1840.87 851.17L1840.87 898.17L1800.16 921.67L1759.46 898.17L1759.46 851.17zM1800.16 968.67L1840.87 992.17L1840.87 1039.17L1800.16 1062.67L1759.46 1039.17L1759.46 992.17zM1840.87 1039.17L1881.57 1062.67L1881.57 1109.67L1840.87 1133.17L1800.16 1109.67L1800.16 1062.67zM1881.57 -18.33L1922.27 5.17L1922.27 52.17L1881.57 75.67L1840.87 52.17L1840.87 5.17zM1922.27 193.17L1962.98 216.67L1962.98 263.67L1922.27 287.17L1881.57 263.67L1881.57 216.67zM1881.57 263.67L1922.27 287.17L1922.27 334.17L1881.57 357.67L1840.87 334.17L1840.87 287.17zM1881.57 404.67L1922.27 428.17L1922.27 475.17L1881.57 498.67L1840.87 475.17L1840.87 428.17zM1881.57 686.67L1922.27 710.17L1922.27 757.17L1881.57 780.67L1840.87 757.17L1840.87 710.17zM1922.27 757.17L1962.98 780.67L1962.98 827.67L1922.27 851.17L1881.57 827.67L1881.57 780.67zM1881.57 827.67L1922.27 851.17L1922.27 898.17L1881.57 921.67L1840.87 898.17L1840.87 851.17zM1881.57 968.67L1922.27 992.17L1922.27 1039.17L1881.57 1062.67L1840.87 1039.17L1840.87 992.17z" stroke="rgba(175, 111, 249, 0.12)" stroke-width="2"></path></g><defs><mask id="SvgjsMask1160"><rect width="1920" height="1080" fill="#ffffff"></rect></mask></defs></svg>